<?xml version="1.0" encoding="UTF-8"?>
<!DOCTYPE svg PUBLIC "-//W3C//DTD SVG 1.1//EN" "http://www.w3.org/Graphics/SVG/1.1/DTD/svg11.dtd">
<!-- Creator: CorelDRAW 2018 (64-Bit) -->
<svg xmlns="http://www.w3.org/2000/svg" xml:space="preserve" width="0.666661in" height="0.416661in" version="1.1" style="shape-rendering:geometricPrecision; text-rendering:geometricPrecision; image-rendering:optimizeQuality; fill-rule:evenodd; clip-rule:evenodd"
viewBox="0 0 666.66 416.66"
 xmlns:xlink="http://www.w3.org/1999/xlink">
 <defs>
  <style type="text/css">
   <![CDATA[
    .fil3 {fill:#2B2A29}
    .fil2 {fill:#FCC300}
    .fil0 {fill:#2B2A29;fill-rule:nonzero}
    .fil1 {fill:#FCC300;fill-rule:nonzero}
   ]]>
  </style>
 </defs>
 <g id="Layer_x0020_1">
  <metadata id="CorelCorpID_0Corel-Layer"/>
  <g id="_1637701892704">
   <path class="fil0" d="M34.23 131.35m64.33 -94.5c-5.59,0 -9.26,0.96 -10.7,3.04 -1.12,1.59 -1.76,5.43 -1.76,11.33l0 46.93c0,17.56 -9.9,26.34 -29.69,26.34 -5.43,0 -10.37,-1.76 -14.85,-5.27 -4.95,-3.67 -7.34,-8.14 -7.34,-13.41 0,-3.04 0.96,-5.43 2.71,-7.34 1.76,-1.92 3.99,-2.87 7.02,-2.87 2.4,0 4.63,0.8 6.39,2.39 1.76,1.59 2.72,3.67 2.72,6.07 0,2.39 -0.96,4.95 -2.87,7.34 -0.96,1.28 -1.44,2.39 -1.44,3.19 0,3.03 2.56,4.63 7.82,4.63 5.59,0 8.46,-4.15 8.46,-12.61l0 -55.4c0,-5.91 -0.48,-9.74 -1.6,-11.17 -1.59,-2.07 -5.59,-3.19 -11.81,-3.19l0 -2.24 46.93 0 0 2.24zm4.15 94.5m66.73 -8.78l-25.22 0 0 -7.5c-5.11,6.22 -11.18,9.42 -18.2,9.42 -5.43,0 -9.58,-1.92 -12.29,-5.91 -2.39,-3.51 -3.67,-8.14 -3.67,-13.73l0 -28.73c0,-4.31 -0.32,-7.02 -0.8,-8.3 -0.96,-2.39 -3.19,-3.51 -6.55,-3.51l0 -2.07 25.54 0 0 42.3c0,3.67 0.16,6.07 0.64,7.35 0.8,2.55 2.56,3.83 4.95,3.83 3.35,0 6.86,-2.72 10.38,-8.3l0 -31.29c0,-4.31 -0.32,-7.19 -0.8,-8.46 -0.96,-2.24 -3.04,-3.35 -6.39,-3.35l0 -2.07 25.38 0 0 46.14c0,4.63 0.32,7.66 0.8,8.78 0.96,2.07 3.03,3.19 6.22,3.19l0 2.23zm8.94 8.78m41.67 -27.93c0,5.91 -1.76,11.01 -5.43,15 -3.67,3.99 -8.3,6.07 -14.21,6.07 -2.39,0 -6.22,-0.96 -11.81,-3.04 -0.8,-0.32 -1.76,-0.48 -2.56,-0.48 -1.76,0 -2.87,1.12 -3.35,3.51l-2.4 0 -1.11 -22.19 2.39 0c1.12,4.47 3.19,8.3 6.22,11.49 3.35,3.67 7.19,5.59 11.33,5.59 4.63,0 6.87,-2.23 6.87,-6.54 0,-2.56 -2.4,-5.59 -7.19,-9.42 -8.3,-6.7 -12.61,-10.22 -13.25,-10.7 -4.79,-4.79 -7.18,-9.42 -7.18,-14.05 0,-5.59 1.76,-10.06 5.43,-13.41 3.51,-3.35 7.98,-5.11 13.57,-5.11 1.76,0 4.15,0.48 7.19,1.6 3.03,1.11 4.63,1.76 4.95,1.76 1.59,0 3.03,-1.12 4.15,-3.35l2.39 0 0.96 20.75 -2.39 0c-4.63,-10.54 -10.06,-15.8 -16.44,-15.8 -1.76,0 -3.19,0.48 -4.47,1.6 -1.44,1.11 -2.07,2.55 -2.07,4.15 0,1.76 2.39,4.47 7.34,8.14 7.35,5.43 11.98,8.94 13.73,10.69 4.95,4.63 7.34,9.26 7.34,13.73zm6.7 27.93m40.71 -20.27c-3.51,8.3 -9.26,12.45 -17.4,12.45 -3.99,0 -7.67,-1.44 -10.7,-4.15 -3.03,-2.71 -4.63,-6.06 -4.63,-10.06l0 -41.03 -7.98 0 0 -2.24c10.7,-7.34 18.83,-16.12 24.11,-26.34l2.07 0 0 22.51 14.53 0 0 6.07 -14.53 0 0 35.76c0,4.47 0,7.02 0.16,7.5 0.48,3.03 2.07,4.47 4.63,4.47 3.04,0 5.59,-2.07 7.82,-6.39l1.92 1.44z"/>
   <g>
    <path class="fil1" d="M34.23 382.05m187.7 -154.26l-5.39 0c-3.24,-16.18 -10.43,-29.49 -22.3,-39.91 -11.87,-10.43 -25.53,-15.46 -41.71,-15.46 -22.3,0 -39.2,9.71 -51.06,28.77 -9.71,16.18 -14.74,35.96 -14.74,59.69 0,61.49 21.93,92.06 65.44,92.06 24.09,0 46.03,-12.23 66.52,-36.32l0 17.62c-20.5,21.57 -46.39,32.36 -76.95,32.36 -30.93,0 -56.45,-8.99 -76.23,-26.61 -20.85,-18.34 -31.28,-42.79 -31.28,-73.35 0,-29.85 10.43,-55.38 31.64,-76.23 21.22,-20.5 46.75,-30.93 76.59,-30.93 8.99,0 19.42,1.8 31.28,5.04 10.07,3.24 20.14,6.11 30.2,9.35 7.19,0 11.51,-4.68 12.59,-14.39l5.39 0 0 68.32zm21.22 154.26m74.07 -19.78l-74.07 0 0 -5.03c7.55,0 12.22,-2.16 14.38,-6.83 1.44,-3.24 2.16,-9.71 2.16,-20.13l0 -134.13c0,-10.07 -0.72,-16.54 -1.8,-19.42 -2.16,-5.03 -7.19,-7.55 -14.74,-7.55l0 -5.03 57.53 0 0 166.13c0,10.43 0.72,17.26 1.8,19.78 2.16,4.67 7.19,7.19 14.74,7.19l0 5.03zm9.35 19.78m59.33 -200.29c0,6.11 -2.16,11.51 -6.47,16.18 -4.31,4.67 -9.71,6.83 -15.82,6.83 -6.11,0 -11.5,-2.16 -15.82,-6.83 -4.31,-4.67 -6.47,-10.07 -6.47,-16.18 0,-6.11 2.16,-11.51 6.47,-15.82 4.31,-4.31 9.71,-6.47 15.82,-6.47 6.11,0 11.51,2.16 15.82,6.47 4.31,4.31 6.47,9.71 6.47,15.82zm14.74 180.51l-74.07 0 0 -5.03c7.55,0 12.22,-2.16 14.38,-6.83 1.44,-3.24 2.16,-9.71 2.16,-20.13l0 -72.64c0,-9.71 -0.72,-15.82 -1.8,-18.7 -2.16,-5.39 -7.19,-7.91 -14.74,-7.91l0 -4.68 57.53 0 0 103.92c0,10.43 0.72,17.26 1.8,19.78 2.16,4.67 7.19,7.19 14.74,7.19l0 5.03z"/>
    <path class="fil2" d="M510.42 188.24c40.76,0 73.81,33.05 73.81,73.81 0,40.76 -33.04,73.8 -73.81,73.8 -40.76,0 -73.81,-33.04 -73.81,-73.8 0,-40.76 33.04,-73.81 73.81,-73.81zm0 -29.13c56.85,0 102.94,46.09 102.94,102.94 0,56.85 -46.09,102.94 -102.94,102.94 -56.85,0 -102.94,-46.09 -102.94,-102.94 0,-56.85 46.09,-102.94 102.94,-102.94z"/>
   </g>
   <polygon class="fil3" points="577.23,363.44 494.1,280.31 536.44,280.31 619.19,363.44 "/>
   <path class="fil3" d="M510.42 148.84c62.53,0 113.22,50.69 113.22,113.21 0,29.33 -11.16,56.06 -29.46,76.17l-0.06 0.06 6.22 6.24 0.04 -0.05c19.91,-21.71 32.06,-50.65 32.06,-82.43 0,-67.39 -54.63,-122.02 -122.02,-122.02 -31.43,0 -60.07,11.89 -81.7,31.4l-0.46 0.41 6.22 6.24 0.44 -0.39c20.03,-17.94 46.48,-28.85 75.49,-28.85z"/>
  </g>
 </g>
</svg>
