<?xml version="1.0" encoding="UTF-8"?>
<!DOCTYPE svg PUBLIC "-//W3C//DTD SVG 1.1//EN" "http://www.w3.org/Graphics/SVG/1.1/DTD/svg11.dtd">
<!-- Creator: CorelDRAW 2018 (64-Bit) -->
<svg xmlns="http://www.w3.org/2000/svg" xml:space="preserve" width="0.833331in" height="0.5in" version="1.1" style="shape-rendering:geometricPrecision; text-rendering:geometricPrecision; image-rendering:optimizeQuality; fill-rule:evenodd; clip-rule:evenodd"
viewBox="0 0 833.33 500"
 xmlns:xlink="http://www.w3.org/1999/xlink">
 <defs>
  <style type="text/css">
   <![CDATA[
    .fil3 {fill:#2B2A29}
    .fil2 {fill:white}
    .fil0 {fill:#2B2A29;fill-rule:nonzero}
    .fil1 {fill:white;fill-rule:nonzero}
   ]]>
  </style>
 </defs>
 <g id="Layer_x0020_1">
  <metadata id="CorelCorpID_0Corel-Layer"/>
  <g id="_1941009756544">
   <path class="fil0" d="M17.36 147.23m85.89 -126.17c-7.46,0 -12.36,1.28 -14.28,4.05 -1.49,2.13 -2.34,7.25 -2.34,15.13l0 62.66c0,23.44 -13.21,35.16 -39.64,35.16 -7.24,0 -13.85,-2.34 -19.82,-7.03 -6.61,-4.9 -9.8,-10.87 -9.8,-17.9 0,-4.05 1.28,-7.24 3.62,-9.8 2.35,-2.56 5.33,-3.84 9.38,-3.84 3.2,0 6.18,1.07 8.52,3.2 2.35,2.13 3.63,4.9 3.63,8.1 0,3.2 -1.28,6.61 -3.84,9.8 -1.28,1.7 -1.92,3.2 -1.92,4.26 0,4.05 3.41,6.18 10.44,6.18 7.46,0 11.29,-5.54 11.29,-16.83l0 -73.95c0,-7.89 -0.64,-13 -2.13,-14.92 -2.13,-2.77 -7.46,-4.26 -15.77,-4.26l0 -2.98 62.66 0 0 2.98zm5.54 126.17m89.08 -11.72l-33.67 0 0 -10.02c-6.82,8.31 -14.92,12.57 -24.3,12.57 -7.25,0 -12.79,-2.56 -16.41,-7.88 -3.2,-4.69 -4.9,-10.87 -4.9,-18.33l0 -38.36c0,-5.75 -0.43,-9.38 -1.07,-11.08 -1.28,-3.2 -4.26,-4.69 -8.74,-4.69l0 -2.77 34.1 0 0 56.48c0,4.9 0.21,8.1 0.85,9.8 1.07,3.41 3.41,5.11 6.61,5.11 4.48,0 9.17,-3.62 13.85,-11.08l0 -41.77c0,-5.75 -0.43,-9.59 -1.07,-11.3 -1.28,-2.98 -4.05,-4.47 -8.52,-4.47l0 -2.77 33.89 0 0 61.59c0,6.18 0.43,10.23 1.07,11.72 1.28,2.77 4.05,4.26 8.31,4.26l0 2.98zm11.93 11.72m55.63 -37.3c0,7.89 -2.34,14.7 -7.25,20.03 -4.9,5.33 -11.08,8.1 -18.96,8.1 -3.2,0 -8.31,-1.28 -15.77,-4.05 -1.07,-0.43 -2.34,-0.64 -3.41,-0.64 -2.35,0 -3.84,1.49 -4.48,4.69l-3.2 0 -1.49 -29.62 3.2 0c1.49,5.97 4.26,11.08 8.31,15.35 4.48,4.9 9.59,7.46 15.13,7.46 6.18,0 9.16,-2.98 9.16,-8.74 0,-3.41 -3.2,-7.46 -9.59,-12.57 -11.08,-8.95 -16.83,-13.64 -17.69,-14.28 -6.39,-6.39 -9.59,-12.57 -9.59,-18.76 0,-7.46 2.35,-13.43 7.25,-17.9 4.69,-4.47 10.66,-6.82 18.11,-6.82 2.35,0 5.54,0.64 9.59,2.13 4.05,1.49 6.18,2.34 6.61,2.34 2.13,0 4.05,-1.49 5.54,-4.48l3.2 0 1.28 27.7 -3.2 0c-6.18,-14.06 -13.43,-21.1 -21.95,-21.1 -2.35,0 -4.26,0.64 -5.97,2.13 -1.92,1.49 -2.77,3.41 -2.77,5.54 0,2.34 3.2,5.97 9.81,10.87 9.8,7.24 15.98,11.93 18.33,14.28 6.61,6.18 9.8,12.36 9.8,18.33zm8.95 37.3m54.34 -27.07c-4.69,11.08 -12.36,16.63 -23.23,16.63 -5.33,0 -10.23,-1.92 -14.28,-5.54 -4.05,-3.62 -6.18,-8.1 -6.18,-13.43l0 -54.77 -10.65 0 0 -2.98c14.28,-9.8 25.15,-21.52 32.18,-35.17l2.77 0 0 30.05 19.39 0 0 8.1 -19.39 0 0 47.74c0,5.96 0,9.37 0.21,10.02 0.64,4.05 2.77,5.97 6.18,5.97 4.05,0 7.46,-2.77 10.44,-8.53l2.56 1.92z"/>
   <path class="fil1" d="M17.36 481.92m250.59 -205.94l-7.2 0c-4.32,-21.6 -13.92,-39.36 -29.76,-53.28 -15.84,-13.92 -34.08,-20.65 -55.69,-20.65 -29.76,0 -52.33,12.96 -68.17,38.41 -12.96,21.6 -19.68,48 -19.68,79.69 0,82.09 29.28,122.89 87.37,122.89 32.16,0 61.44,-16.32 88.81,-48.48l0 23.52c-27.36,28.8 -61.93,43.2 -102.73,43.2 -41.28,0 -75.37,-12 -101.77,-35.52 -27.84,-24.48 -41.76,-57.13 -41.76,-97.93 0,-39.85 13.92,-73.93 42.24,-101.77 28.32,-27.36 62.41,-41.28 102.25,-41.28 12,0 25.92,2.4 41.76,6.72 13.44,4.32 26.88,8.16 40.32,12.48 9.6,0 15.36,-6.24 16.8,-19.2l7.2 0 0 91.21zm28.32 205.94m98.89 -26.41l-98.89 0 0 -6.72c10.08,0 16.32,-2.88 19.2,-9.12 1.92,-4.32 2.88,-12.96 2.88,-26.88l0 -179.06c0,-13.44 -0.96,-22.08 -2.4,-25.92 -2.88,-6.72 -9.6,-10.08 -19.68,-10.08l0 -6.72 76.81 0 0 221.78c0,13.92 0.96,23.04 2.4,26.4 2.88,6.24 9.6,9.6 19.69,9.6l0 6.72zm12.48 26.41m79.2 -267.39c0,8.16 -2.88,15.36 -8.64,21.6 -5.76,6.24 -12.96,9.12 -21.12,9.12 -8.16,0 -15.36,-2.88 -21.12,-9.12 -5.76,-6.24 -8.64,-13.44 -8.64,-21.6 0,-8.16 2.88,-15.36 8.64,-21.12 5.76,-5.76 12.96,-8.64 21.12,-8.64 8.16,0 15.36,2.88 21.12,8.64 5.76,5.76 8.64,12.96 8.64,21.12zm19.69 240.98l-98.89 0 0 -6.72c10.08,0 16.32,-2.88 19.2,-9.12 1.92,-4.32 2.88,-12.96 2.88,-26.88l0 -96.97c0,-12.96 -0.96,-21.12 -2.4,-24.96 -2.88,-7.2 -9.6,-10.56 -19.68,-10.56l0 -6.24 76.81 0 0 138.74c0,13.92 0.96,23.04 2.4,26.4 2.88,6.24 9.6,9.6 19.69,9.6l0 6.72z"/>
   <path class="fil2" d="M653.08 223.19c54.42,0 98.54,44.12 98.54,98.54 0,54.42 -44.12,98.53 -98.54,98.53 -54.42,0 -98.54,-44.11 -98.54,-98.53 0,-54.42 44.11,-98.54 98.54,-98.54zm0 -38.89c75.9,0 137.43,61.53 137.43,137.43 0,75.89 -61.53,137.43 -137.43,137.43 -75.9,0 -137.43,-61.54 -137.43,-137.43 0,-75.91 61.53,-137.43 137.43,-137.43z"/>
   <polygon class="fil3" points="742.28,457.08 631.3,346.09 687.83,346.09 798.29,457.08 "/>
   <path class="fil3" d="M653.08 170.58c83.48,0 151.15,67.67 151.15,151.14 0,39.17 -14.89,74.85 -39.33,101.7l-0.07 0.08 8.3 8.33 0.06 -0.06c26.57,-28.99 42.8,-67.62 42.8,-110.04 0,-89.96 -72.93,-162.89 -162.9,-162.89 -41.95,0 -80.19,15.87 -109.07,41.91l-0.61 0.55 8.3 8.33 0.59 -0.53c26.74,-23.95 62.06,-38.52 100.78,-38.52z"/>
  </g>
 </g>
</svg>
